<?xml version="1.0" encoding="UTF-8" standalone="no"?> <svg xmlns="http://www.w3.org/2000/svg" viewBox="0 0 64 58.67"><defs><style>.cls-1{fill:#35353d;}</style></defs><title>Asset 20</title><g id="Layer_2" data-name="Layer 2"><g id="Layer_1-2" data-name="Layer 1"><path class="cls-1" d="M56,10.67H50.67v-8a2.67,2.67,0,0,0-5.34,0v8H18.67v-8a2.67,2.67,0,0,0-5.34,0v8H8a8,8,0,0,0-8,8v32a8,8,0,0,0,8,8H56a8,8,0,0,0,8-8v-32A8,8,0,0,0,56,10.67Zm2.67,40A2.67,2.67,0,0,1,56,53.33H8a2.67,2.67,0,0,1-2.67-2.66V32H58.67Zm0-24H5.33v-8A2.68,2.68,0,0,1,8,16h5.33v2.67a2.67,2.67,0,0,0,5.34,0V16H45.33v2.67a2.67,2.67,0,0,0,5.34,0V16H56a2.68,2.68,0,0,1,2.67,2.67Z"/><rect class="cls-1" x="42.67" y="37.44" width="10.67" height="10.67" rx="2.67" ry="2.67"/></g></g></svg>